<svg width="119" height="108" viewBox="0 0 119 108" fill="none" xmlns="http://www.w3.org/2000/svg">
<path d="M79.66 39.17C71.29 39.17 62.77 38.83 54.8 36.61C46.98 34.44 39.8 30.23 33.4 25.36C29.21 22.19 25.4 19.66 19.96 20.04C14.6381 20.328 9.5488 22.3153 5.44001 25.71C-1.47999 31.77 -0.439991 43 2.33001 50.86C6.49001 62.73 19.15 71 29.91 76.35C42.34 82.56 56 86.17 69.69 88.24C81.69 90.07 97.11 91.39 107.51 83.56C117.06 76.35 119.68 59.91 117.34 48.81C116.772 45.5309 115.026 42.5721 112.43 40.49C105.72 35.58 95.71 38.86 88.17 39.02C85.37 39.08 82.52 39.15 79.66 39.17Z" fill="#F2F2F2"/>
<path d="M59.58 107.7C79.8544 107.7 96.29 106.675 96.29 105.41C96.29 104.145 79.8544 103.12 59.58 103.12C39.3056 103.12 22.87 104.145 22.87 105.41C22.87 106.675 39.3056 107.7 59.58 107.7Z" fill="#F2F2F2"/>
<path d="M7.78003 17.12L20.78 16.02C22.4011 15.878 24.0218 16.2973 25.3707 17.2075C26.7196 18.1177 27.7149 19.4636 28.19 21.02L40.65 62.72L38.21 67.09C37.5833 68.216 37.2739 69.4909 37.3149 70.7789C37.3558 72.0669 37.7455 73.3196 38.4424 74.4035C39.1394 75.4874 40.1174 76.3619 41.2723 76.9336C42.4271 77.5053 43.7155 77.7529 45 77.65L94.9 73.41" stroke="#BABABA" stroke-linecap="round" stroke-linejoin="round"/>
<path d="M30.05 27.35L88.05 22.43C88.6213 22.381 89.1964 22.4613 89.7325 22.665C90.2686 22.8686 90.7519 23.1903 91.1467 23.6062C91.5415 24.0221 91.8376 24.5216 92.013 25.0675C92.1884 25.6135 92.2386 26.192 92.16 26.76L88.23 55.13C88.1106 55.9812 87.7085 56.7675 87.0881 57.3624C86.4678 57.9573 85.6654 58.3263 84.81 58.41L40.65 62.72L30.05 27.35Z" fill="white" stroke="#BABABA" stroke-linecap="round" stroke-linejoin="round"/>
<path d="M50.55 87.21C53.1512 87.21 55.26 85.1013 55.26 82.5C55.26 79.8987 53.1512 77.79 50.55 77.79C47.9487 77.79 45.84 79.8987 45.84 82.5C45.84 85.1013 47.9487 87.21 50.55 87.21Z" fill="white" stroke="#BABABA" stroke-linecap="round" stroke-linejoin="round"/>
<path d="M83.35 84.43C85.9513 84.43 88.06 82.3213 88.06 79.72C88.06 77.1187 85.9513 75.01 83.35 75.01C80.7488 75.01 78.64 77.1187 78.64 79.72C78.64 82.3213 80.7488 84.43 83.35 84.43Z" fill="white" stroke="#BABABA" stroke-linecap="round" stroke-linejoin="round"/>
<path d="M18.0744 14.894L5.81847 15.9339C4.75638 16.024 3.96844 16.9581 4.05856 18.0202C4.14868 19.0823 5.08273 19.8702 6.14483 19.7801L18.4008 18.7402C19.4629 18.65 20.2508 17.716 20.1607 16.6539C20.0706 15.5918 19.1365 14.8039 18.0744 14.894Z" fill="#D2D2D2"/>
<path d="M54.47 49.26C54.7091 47.4349 55.565 45.7465 56.8957 44.4747C58.2263 43.2029 59.9517 42.4242 61.7857 42.2678C63.6197 42.1113 65.4521 42.5866 66.9789 43.6146C68.5057 44.6427 69.6352 46.1618 70.18 47.92" stroke="#BABABA" stroke-linecap="round" stroke-linejoin="round"/>
<path d="M70.31 38.47C70.9286 38.47 71.43 37.9686 71.43 37.35C71.43 36.7314 70.9286 36.23 70.31 36.23C69.6914 36.23 69.19 36.7314 69.19 37.35C69.19 37.9686 69.6914 38.47 70.31 38.47Z" fill="#BABABA"/>
<path d="M52.56 39.97C53.1786 39.97 53.68 39.4686 53.68 38.85C53.68 38.2314 53.1786 37.73 52.56 37.73C51.9414 37.73 51.44 38.2314 51.44 38.85C51.44 39.4686 51.9414 39.97 52.56 39.97Z" fill="#BABABA"/>
<path d="M21.01 81.11V85.42" stroke="#BABABA" stroke-linecap="round" stroke-linejoin="round"/>
<path d="M18.86 83.26H23.16" stroke="#BABABA" stroke-linecap="round" stroke-linejoin="round"/>
<path d="M89.72 0.990005V5.29001" stroke="#BABABA" stroke-linecap="round" stroke-linejoin="round"/>
<path d="M87.57 3.14H91.87" stroke="#BABABA" stroke-linecap="round" stroke-linejoin="round"/>
<path d="M38.81 13.84V18.14" stroke="#BABABA" stroke-linecap="round" stroke-linejoin="round"/>
<path d="M36.65 15.99H40.96" stroke="#BABABA" stroke-linecap="round" stroke-linejoin="round"/>
<path d="M100.45 29.65C101.013 29.65 101.47 29.1933 101.47 28.63C101.47 28.0667 101.013 27.61 100.45 27.61C99.8867 27.61 99.43 28.0667 99.43 28.63C99.43 29.1933 99.8867 29.65 100.45 29.65Z" fill="white" stroke="#BABABA" stroke-linecap="round" stroke-linejoin="round"/>
<path d="M62.33 20.48C62.8712 20.48 63.31 20.0412 63.31 19.5C63.31 18.9588 62.8712 18.52 62.33 18.52C61.7887 18.52 61.35 18.9588 61.35 19.5C61.35 20.0412 61.7887 20.48 62.33 20.48Z" fill="#CFCFCF"/>
<path d="M68.91 91.6C69.4512 91.6 69.89 91.1613 69.89 90.62C69.89 90.0788 69.4512 89.64 68.91 89.64C68.3688 89.64 67.93 90.0788 67.93 90.62C67.93 91.1613 68.3688 91.6 68.91 91.6Z" fill="#CFCFCF"/>
</svg>
