<svg width="161" height="161" viewBox="0 0 161 161" fill="none" xmlns="http://www.w3.org/2000/svg">
<g clip-path="url(#clip0_1_28)">
<path d="M124.353 55.6064H95.5834C95.2202 55.6091 94.872 55.7552 94.6107 56.0144L91.4735 59.2509L88.3363 56.0144C88.0751 55.7552 87.7268 55.6091 87.3636 55.6064H39.415C39.052 55.6075 38.7042 55.7561 38.4475 56.0197C38.1908 56.2834 38.0461 56.6407 38.0451 57.0135V69.7751C38.0437 70.1136 38.1626 70.4409 38.3795 70.6956C38.5965 70.9503 38.8965 71.1149 39.2232 71.1584C41.392 71.4335 43.4037 72.4627 44.924 74.075C46.4443 75.6874 47.3815 77.7855 47.58 80.0208C47.6531 80.6282 47.6531 81.2426 47.58 81.8501C47.3815 84.0854 46.4443 86.1836 44.924 87.7958C43.4037 89.4081 41.392 90.4373 39.2232 90.7124C38.8963 90.756 38.5961 90.9208 38.3791 91.1758C38.1621 91.4308 38.0433 91.7584 38.0451 92.0971V104.857C38.0461 105.23 38.1908 105.587 38.4475 105.851C38.7042 106.115 39.052 106.263 39.415 106.264H87.3636C87.7268 106.262 88.0751 106.116 88.3363 105.856L91.4735 102.62L94.6107 105.856C94.872 106.116 95.2202 106.262 95.5834 106.264H124.353C124.716 106.263 125.063 106.115 125.32 105.851C125.577 105.587 125.721 105.23 125.723 104.857V57.0135C125.721 56.6407 125.577 56.2834 125.32 56.0197C125.063 55.7561 124.716 55.6075 124.353 55.6064Z" fill="#189847" fill-opacity="0.28"/>
<g filter="url(#filter0_f_1_28)">
<ellipse cx="77.987" cy="78.0128" rx="75.013" ry="75.9872" fill="#189847" fill-opacity="0.1"/>
</g>
<circle cx="77.0128" cy="78.0128" r="61.3743" fill="#189847" fill-opacity="0.1"/>
<path d="M65.0344 73.2318C65.0344 73.6047 64.8895 73.9624 64.6315 74.226C64.3736 74.4897 64.0238 74.6378 63.6591 74.6378C63.2943 74.6378 62.9445 74.4897 62.6866 74.226C62.4287 73.9624 62.2838 73.6047 62.2838 73.2318V70.4198H56.7827V73.2318C56.7827 73.6047 56.6378 73.9624 56.3799 74.226C56.122 74.4897 55.7722 74.6378 55.4075 74.6378C55.0427 74.6378 54.6929 74.4897 54.435 74.226C54.1771 73.9624 54.0322 73.6047 54.0322 73.2318V70.4198H51.2816V83.074C51.2824 83.8196 51.5724 84.5344 52.0881 85.0616C52.6037 85.5888 53.3029 85.8853 54.0322 85.8861H65.0344C65.7636 85.8853 66.4628 85.5888 66.9785 85.0616C67.4941 84.5344 67.7842 83.8196 67.7849 83.074V70.4198H65.0344V73.2318ZM62.2838 66.2017C62.2838 65.4559 61.994 64.7406 61.4782 64.2133C60.9624 63.6859 60.2628 63.3896 59.5333 63.3896C58.8038 63.3896 58.1042 63.6859 57.5883 64.2133C57.0725 64.7406 56.7827 65.4559 56.7827 66.2017V67.6077H62.2838V66.2017Z" fill="#189847"/>
<path d="M95.2903 71.8258C96.0499 71.8258 96.6656 71.1963 96.6656 70.4198C96.6656 69.6432 96.0499 69.0137 95.2903 69.0137C94.5308 69.0137 93.915 69.6432 93.915 70.4198C93.915 71.1963 94.5308 71.8258 95.2903 71.8258Z" fill="#189847"/>
<path d="M106.292 83.074C107.052 83.074 107.668 82.4445 107.668 81.668C107.668 80.8915 107.052 80.262 106.292 80.262C105.533 80.262 104.917 80.8915 104.917 81.668C104.917 82.4445 105.533 83.074 106.292 83.074Z" fill="#189847"/>
<path d="M115.919 50.7354H87.0387C86.6741 50.7382 86.3245 50.8841 86.0622 51.1431L82.9129 54.377L79.7635 51.1431C79.5013 50.8841 79.1517 50.7382 78.7871 50.7354H30.6526C30.2882 50.7365 29.939 50.885 29.6813 51.1484C29.4236 51.4119 29.2784 51.7689 29.2773 52.1414V64.8927C29.2759 65.2308 29.3953 65.5579 29.6131 65.8123C29.8309 66.0668 30.132 66.2313 30.46 66.2748C32.6372 66.5497 34.6567 67.5781 36.1829 69.1891C37.7091 70.8 38.65 72.8965 38.8492 75.13C38.9226 75.7369 38.9226 76.3508 38.8492 76.9578C38.65 79.1913 37.7091 81.2877 36.1829 82.8987C34.6567 84.5097 32.6372 85.5381 30.46 85.813C30.1318 85.8565 29.8304 86.0211 29.6126 86.2759C29.3948 86.5307 29.2756 86.8581 29.2773 87.1965V99.9463C29.2784 100.319 29.4236 100.676 29.6813 100.939C29.939 101.203 30.2882 101.351 30.6526 101.352H78.7871C79.1517 101.35 79.5013 101.204 79.7635 100.945L82.9129 97.7108L86.0622 100.945C86.3245 101.204 86.6741 101.35 87.0387 101.352H115.919C116.284 101.351 116.633 101.203 116.891 100.939C117.148 100.676 117.294 100.319 117.295 99.9463V52.1414C117.294 51.7689 117.148 51.4119 116.891 51.1484C116.633 50.885 116.284 50.7365 115.919 50.7354ZM70.5354 83.074C70.5356 83.8126 70.3934 84.5441 70.1171 85.2265C69.8407 85.9089 69.4355 86.529 68.9246 87.0513C68.4137 87.5736 67.8072 87.9878 67.1397 88.2704C66.4722 88.553 65.7568 88.6983 65.0344 88.6981H54.0322C53.3097 88.6983 52.5943 88.553 51.9268 88.2704C51.2593 87.9878 50.6528 87.5736 50.1419 87.0513C49.6311 86.529 49.2259 85.9089 48.9495 85.2265C48.6731 84.5441 48.5309 83.8126 48.5311 83.074V70.4198C48.5333 69.6746 48.8238 68.9607 49.3391 68.4338C49.8545 67.9069 50.5528 67.6099 51.2816 67.6077H54.0322V66.2017C54.0322 64.7101 54.6118 63.2796 55.6434 62.2248C56.6751 61.1701 58.0743 60.5776 59.5333 60.5776C60.9922 60.5776 62.3915 61.1701 63.4231 62.2248C64.4548 63.2796 65.0344 64.7101 65.0344 66.2017V67.6077H67.7849C68.5137 67.6099 69.2121 67.9069 69.7274 68.4338C70.2428 68.9607 70.5333 69.6746 70.5354 70.4198V83.074ZM84.2881 90.1042C84.2881 90.4771 84.1433 90.8347 83.8853 91.0984C83.6274 91.362 83.2776 91.5102 82.9129 91.5102C82.5481 91.5102 82.1983 91.362 81.9404 91.0984C81.6825 90.8347 81.5376 90.4771 81.5376 90.1042V87.2921C81.5376 86.9192 81.6825 86.5616 81.9404 86.2979C82.1983 86.0342 82.5481 85.8861 82.9129 85.8861C83.2776 85.8861 83.6274 86.0342 83.8853 86.2979C84.1433 86.5616 84.2881 86.9192 84.2881 87.2921V90.1042ZM84.2881 81.668C84.2881 82.0409 84.1433 82.3985 83.8853 82.6622C83.6274 82.9259 83.2776 83.074 82.9129 83.074C82.5481 83.074 82.1983 82.9259 81.9404 82.6622C81.6825 82.3985 81.5376 82.0409 81.5376 81.668V78.8559C81.5376 78.483 81.6825 78.1254 81.9404 77.8617C82.1983 77.598 82.5481 77.4499 82.9129 77.4499C83.2776 77.4499 83.6274 77.598 83.8853 77.8617C84.1433 78.1254 84.2881 78.483 84.2881 78.8559V81.668ZM84.2881 73.2318C84.2881 73.6047 84.1433 73.9624 83.8853 74.226C83.6274 74.4897 83.2776 74.6379 82.9129 74.6379C82.5481 74.6379 82.1983 74.4897 81.9404 74.226C81.6825 73.9624 81.5376 73.6047 81.5376 73.2318V70.4198C81.5376 70.0469 81.6825 69.6892 81.9404 69.4256C82.1983 69.1619 82.5481 69.0137 82.9129 69.0137C83.2776 69.0137 83.6274 69.1619 83.8853 69.4256C84.1433 69.6892 84.2881 70.0469 84.2881 70.4198V73.2318ZM84.2881 64.7957C84.2881 65.1686 84.1433 65.5262 83.8853 65.7899C83.6274 66.0536 83.2776 66.2017 82.9129 66.2017C82.5481 66.2017 82.1983 66.0536 81.9404 65.7899C81.6825 65.5262 81.5376 65.1686 81.5376 64.7957V61.9836C81.5376 61.6107 81.6825 61.2531 81.9404 60.9894C82.1983 60.7257 82.5481 60.5776 82.9129 60.5776C83.2776 60.5776 83.6274 60.7257 83.8853 60.9894C84.1433 61.2531 84.2881 61.6107 84.2881 61.9836V64.7957ZM91.1645 70.4198C91.1645 69.5855 91.4065 68.77 91.8598 68.0763C92.3132 67.3827 92.9575 66.842 93.7114 66.5228C94.4653 66.2035 95.2949 66.12 96.0952 66.2827C96.8955 66.4455 97.6307 66.8472 98.2077 67.4371C98.7847 68.027 99.1776 68.7786 99.3368 69.5969C99.496 70.4151 99.4143 71.2632 99.1021 72.034C98.7898 72.8047 98.261 73.4635 97.5825 73.927C96.904 74.3905 96.1063 74.6379 95.2903 74.6379C94.1971 74.6345 93.1496 74.189 92.3765 73.3987C91.6035 72.6084 91.1678 71.5374 91.1645 70.4198ZM93.915 84.48C93.5502 84.4786 93.2001 84.3324 92.9386 84.0723C92.6809 83.8068 92.5364 83.448 92.5364 83.074C92.5364 82.7 92.6809 82.3412 92.9386 82.0757L106.691 68.0155C106.95 67.7507 107.302 67.602 107.668 67.602C108.034 67.602 108.385 67.7507 108.644 68.0155C108.903 68.2802 109.049 68.6393 109.049 69.0137C109.049 69.3882 108.903 69.7473 108.644 70.012L94.8915 84.0723C94.63 84.3324 94.2799 84.4786 93.915 84.48ZM106.292 85.8861C105.476 85.8861 104.679 85.6387 104 85.1752C103.322 84.7117 102.793 84.0529 102.481 83.2822C102.168 82.5114 102.087 81.6633 102.246 80.8451C102.405 80.0269 102.798 79.2753 103.375 78.6854C103.952 78.0954 104.687 77.6937 105.488 77.531C106.288 77.3682 107.117 77.4517 107.871 77.771C108.625 78.0902 109.27 78.6309 109.723 79.3245C110.176 80.0182 110.418 80.8337 110.418 81.668C110.415 82.7857 109.979 83.8566 109.206 84.6469C108.433 85.4373 107.386 85.8827 106.292 85.8861Z" fill="#189847"/>
<g filter="url(#filter1_f_1_28)">
<circle cx="14.5" cy="20.5" r="2.5" fill="#FFA8A8"/>
</g>
<g filter="url(#filter2_f_1_28)">
<circle cx="142.5" cy="15.5" r="2.5" fill="#189847"/>
</g>
<g filter="url(#filter3_f_1_28)">
<circle cx="14.5" cy="138.5" r="2.5" fill="#189847"/>
</g>
<g filter="url(#filter4_f_1_28)">
<circle cx="139.5" cy="144.5" r="2.5" fill="#FF7777"/>
</g>
</g>
<defs>
<filter id="filter0_f_1_28" x="-4.62596" y="-5.57435" width="165.226" height="167.174" filterUnits="userSpaceOnUse" color-interpolation-filters="sRGB">
<feFlood flood-opacity="0" result="BackgroundImageFix"/>
<feBlend mode="normal" in="SourceGraphic" in2="BackgroundImageFix" result="shape"/>
<feGaussianBlur stdDeviation="3.8" result="effect1_foregroundBlur_1_28"/>
</filter>
<filter id="filter1_f_1_28" x="8" y="14" width="13" height="13" filterUnits="userSpaceOnUse" color-interpolation-filters="sRGB">
<feFlood flood-opacity="0" result="BackgroundImageFix"/>
<feBlend mode="normal" in="SourceGraphic" in2="BackgroundImageFix" result="shape"/>
<feGaussianBlur stdDeviation="2" result="effect1_foregroundBlur_1_28"/>
</filter>
<filter id="filter2_f_1_28" x="136" y="9" width="13" height="13" filterUnits="userSpaceOnUse" color-interpolation-filters="sRGB">
<feFlood flood-opacity="0" result="BackgroundImageFix"/>
<feBlend mode="normal" in="SourceGraphic" in2="BackgroundImageFix" result="shape"/>
<feGaussianBlur stdDeviation="2" result="effect1_foregroundBlur_1_28"/>
</filter>
<filter id="filter3_f_1_28" x="10" y="134" width="9" height="9" filterUnits="userSpaceOnUse" color-interpolation-filters="sRGB">
<feFlood flood-opacity="0" result="BackgroundImageFix"/>
<feBlend mode="normal" in="SourceGraphic" in2="BackgroundImageFix" result="shape"/>
<feGaussianBlur stdDeviation="1" result="effect1_foregroundBlur_1_28"/>
</filter>
<filter id="filter4_f_1_28" x="135.6" y="140.6" width="7.8" height="7.8" filterUnits="userSpaceOnUse" color-interpolation-filters="sRGB">
<feFlood flood-opacity="0" result="BackgroundImageFix"/>
<feBlend mode="normal" in="SourceGraphic" in2="BackgroundImageFix" result="shape"/>
<feGaussianBlur stdDeviation="0.7" result="effect1_foregroundBlur_1_28"/>
</filter>
<clipPath id="clip0_1_28">
<rect width="161" height="161" fill="white"/>
</clipPath>
</defs>
</svg>
