<svg width="177" height="177" viewBox="0 0 177 177" fill="none" xmlns="http://www.w3.org/2000/svg">
<path d="M109.66 73.17C101.29 73.17 92.77 72.83 84.8 70.61C76.98 68.44 69.8 64.23 63.4 59.36C59.21 56.19 55.4 53.67 49.96 54.05C44.637 54.3331 39.5463 56.321 35.44 59.72C28.52 65.78 29.56 77 32.33 84.87C36.49 96.74 49.15 105 59.91 110.36C72.34 116.57 86 120.17 99.69 122.25C111.69 124.07 127.11 125.4 137.51 117.56C147.06 110.36 149.68 93.92 147.34 82.82C146.773 79.5379 145.027 76.5758 142.43 74.49C135.72 69.59 125.71 72.86 118.17 73.03C115.37 73.09 112.52 73.15 109.66 73.17Z" fill="#F2F2F2"/>
<path d="M89.18 141.7C109.454 141.7 125.89 140.675 125.89 139.41C125.89 138.145 109.454 137.12 89.18 137.12C68.9056 137.12 52.47 138.145 52.47 139.41C52.47 140.675 68.9056 141.7 89.18 141.7Z" fill="#F2F2F2"/>
<path d="M134.99 41.98C135.531 41.98 135.97 41.5413 135.97 41C135.97 40.4588 135.531 40.02 134.99 40.02C134.449 40.02 134.01 40.4588 134.01 41C134.01 41.5413 134.449 41.98 134.99 41.98Z" fill="#CFCFCF"/>
<path d="M69.8 33.77C70.3412 33.77 70.78 33.3312 70.78 32.79C70.78 32.2488 70.3412 31.81 69.8 31.81C69.2588 31.81 68.82 32.2488 68.82 32.79C68.82 33.3312 69.2588 33.77 69.8 33.77Z" fill="#CFCFCF"/>
<path d="M81.65 127.08C82.1912 127.08 82.63 126.641 82.63 126.1C82.63 125.559 82.1912 125.12 81.65 125.12C81.1087 125.12 80.67 125.559 80.67 126.1C80.67 126.641 81.1087 127.08 81.65 127.08Z" fill="#CFCFCF"/>
<path d="M107.81 29.11V33.41" stroke="#BABABA" stroke-linecap="round" stroke-linejoin="round"/>
<path d="M105.66 31.26H109.96" stroke="#BABABA" stroke-linecap="round" stroke-linejoin="round"/>
<path d="M37.75 47.21V51.51" stroke="#BABABA" stroke-linecap="round" stroke-linejoin="round"/>
<path d="M35.59 49.36H39.9" stroke="#BABABA" stroke-linecap="round" stroke-linejoin="round"/>
<path d="M40.99 107.12V111.43" stroke="#BABABA" stroke-linecap="round" stroke-linejoin="round"/>
<path d="M38.83 109.27H43.14" stroke="#BABABA" stroke-linecap="round" stroke-linejoin="round"/>
<path d="M129.84 63.03V67.33" stroke="#BABABA" stroke-linecap="round" stroke-linejoin="round"/>
<path d="M127.69 65.18H131.99" stroke="#BABABA" stroke-linecap="round" stroke-linejoin="round"/>
<path d="M99.8695 37.9425L49.6765 44.5335C46.4233 44.9607 44.1323 47.9443 44.5595 51.1975L52.21 109.459C52.6372 112.712 55.6208 115.003 58.874 114.576L109.067 107.985C112.32 107.558 114.611 104.574 114.184 101.321L106.534 43.0595C106.106 39.8063 103.123 37.5153 99.8695 37.9425Z" fill="#D2D2D2"/>
<path d="M114.49 46.49H63.79C60.5039 46.49 57.84 49.1539 57.84 52.44V111.29C57.84 114.576 60.5039 117.24 63.79 117.24H114.49C117.776 117.24 120.44 114.576 120.44 111.29V52.44C120.44 49.1539 117.776 46.49 114.49 46.49Z" fill="white" stroke="#BABABA" stroke-linecap="round" stroke-linejoin="round"/>
<path d="M65.41 93.05L75.55 76.52C75.6498 76.2785 75.8189 76.0721 76.0361 75.9268C76.2533 75.7815 76.5087 75.704 76.77 75.704C77.0313 75.704 77.2867 75.7815 77.5039 75.9268C77.7211 76.0721 77.8902 76.2785 77.99 76.52L83.74 85.89C83.8377 86.1323 84.0055 86.3398 84.222 86.486C84.4385 86.6321 84.6938 86.7102 84.955 86.7102C85.2162 86.7102 85.4715 86.6321 85.688 86.486C85.9045 86.3398 86.0723 86.1323 86.17 85.89L96.01 69.89C96.1077 69.6477 96.2755 69.4402 96.492 69.294C96.7085 69.1479 96.9638 69.0698 97.225 69.0698C97.4862 69.0698 97.7415 69.1479 97.958 69.294C98.1745 69.4402 98.3423 69.6477 98.44 69.89L112.88 93.42L65.41 93.05Z" fill="white" stroke="#BABABA" stroke-linecap="round" stroke-linejoin="round"/>
<path d="M85.63 74.3C87.3918 74.3 88.82 72.8718 88.82 71.11C88.82 69.3482 87.3918 67.92 85.63 67.92C83.8682 67.92 82.44 69.3482 82.44 71.11C82.44 72.8718 83.8682 74.3 85.63 74.3Z" fill="white" stroke="#BABABA" stroke-linecap="round" stroke-linejoin="round"/>
</svg>
