<svg width="372" height="372" viewBox="0 0 372 372" fill="none" xmlns="http://www.w3.org/2000/svg">
<rect width="372" height="372" fill="#F5F5F5"/>
<rect width="372" height="372" fill="white"/>
<path d="M215.078 133.869C194.18 133.994 172.957 133.019 153.106 127.494C133.255 121.969 115.699 111.544 99.7381 99.3697C89.2889 91.4449 79.7874 85.145 66.221 86.095C52.9564 86.7939 40.2686 91.7552 30.0355 100.245C12.7782 115.394 15.3967 143.394 22.2797 163.093C32.654 192.768 64.2259 213.367 91.0346 226.792C122.033 242.316 156.074 251.341 190.214 256.516C220.14 261.066 258.57 264.391 284.481 244.791C308.297 226.817 314.831 185.718 308.996 157.968C307.575 149.772 303.222 142.377 296.751 137.169C280.017 124.919 255.079 133.094 236.275 133.519C229.417 133.669 222.21 133.844 215.078 133.869Z" fill="#F2F2F2"/>
<path d="M317 251V262" stroke="#CFCFCF" stroke-width="0.85" stroke-linecap="round" stroke-linejoin="round"/>
<path d="M311 256H322" stroke="#CFCFCF" stroke-width="0.85" stroke-linecap="round" stroke-linejoin="round"/>
<path d="M172.5 305C223.034 305 264 302.538 264 299.5C264 296.462 223.034 294 172.5 294C121.966 294 81 296.462 81 299.5C81 302.538 121.966 305 172.5 305Z" fill="#F2F2F2"/>
<path d="M101.52 66H234.523C237.832 66 241.006 67.3204 243.346 69.6706C245.685 72.0209 247 75.2086 247 78.5324V237.468C247 240.791 245.685 243.979 243.346 246.329C241.006 248.68 237.832 250 234.523 250H84.4768C81.1678 250 77.9942 248.68 75.6544 246.329C73.3145 243.979 72 240.791 72 237.468V95.9523L101.52 66Z" fill="white" stroke="#BABABA" stroke-linecap="round" stroke-linejoin="round"/>
<path d="M247 144H110V251H247V144Z" fill="#D2D2D2"/>
<path d="M72 96H96.5731C98.0147 95.9934 99.395 95.4218 100.412 94.4103C101.429 93.3988 102 92.0297 102 90.6025V66L72 96Z" fill="white" stroke="#BABABA" stroke-linecap="round" stroke-linejoin="round"/>
<path d="M246.428 109H110.572C105.285 109 101 113.267 101 118.53V147.47C101 152.733 105.285 157 110.572 157H246.428C251.715 157 256 152.733 256 147.47V118.53C256 113.267 251.715 109 246.428 109Z" fill="white" stroke="#BABABA" stroke-linecap="round" stroke-linejoin="round"/>
<path d="M127.5 142C132.194 142 136 138.194 136 133.5C136 128.806 132.194 125 127.5 125C122.806 125 119 128.806 119 133.5C119 138.194 122.806 142 127.5 142Z" fill="#D2D2D2"/>
<path d="M153.5 142C158.194 142 162 138.194 162 133.5C162 128.806 158.194 125 153.5 125C148.806 125 145 128.806 145 133.5C145 138.194 148.806 142 153.5 142Z" fill="#D2D2D2"/>
<path d="M179.5 142C184.194 142 188 138.194 188 133.5C188 128.806 184.194 125 179.5 125C174.806 125 171 128.806 171 133.5C171 138.194 174.806 142 179.5 142Z" fill="#D2D2D2"/>
<path d="M246.428 162H110.572C105.285 162 101 166.356 101 171.729V201.271C101 206.644 105.285 211 110.572 211H246.428C251.715 211 256 206.644 256 201.271V171.729C256 166.356 251.715 162 246.428 162Z" fill="white" stroke="#BABABA" stroke-linecap="round" stroke-linejoin="round"/>
<path d="M127.5 195C132.194 195 136 191.194 136 186.5C136 181.806 132.194 178 127.5 178C122.806 178 119 181.806 119 186.5C119 191.194 122.806 195 127.5 195Z" fill="#D2D2D2"/>
<path d="M153.5 195C158.194 195 162 191.194 162 186.5C162 181.806 158.194 178 153.5 178C148.806 178 145 181.806 145 186.5C145 191.194 148.806 195 153.5 195Z" fill="#D2D2D2"/>
<path d="M179.5 195C184.194 195 188 191.194 188 186.5C188 181.806 184.194 178 179.5 178C174.806 178 171 181.806 171 186.5C171 191.194 174.806 195 179.5 195Z" fill="#D2D2D2"/>
<path d="M246.428 216H110.572C105.285 216 101 220.267 101 225.53V254.47C101 259.733 105.285 264 110.572 264H246.428C251.715 264 256 259.733 256 254.47V225.53C256 220.267 251.715 216 246.428 216Z" fill="white" stroke="#BABABA" stroke-linecap="round" stroke-linejoin="round"/>
<path d="M127.5 248C132.194 248 136 244.418 136 240C136 235.582 132.194 232 127.5 232C122.806 232 119 235.582 119 240C119 244.418 122.806 248 127.5 248Z" fill="#D2D2D2"/>
<path d="M153.5 248C158.194 248 162 244.418 162 240C162 235.582 158.194 232 153.5 232C148.806 232 145 235.582 145 240C145 244.418 148.806 248 153.5 248Z" fill="#D2D2D2"/>
<path d="M179.5 248C184.194 248 188 244.418 188 240C188 235.582 184.194 232 179.5 232C174.806 232 171 235.582 171 240C171 244.418 174.806 248 179.5 248Z" fill="#D2D2D2"/>
<path d="M258.5 170C286.943 170 310 146.719 310 118C310 89.2812 286.943 66 258.5 66C230.057 66 207 89.2812 207 118C207 146.719 230.057 170 258.5 170Z" fill="white" stroke="#BABABA" stroke-linecap="round" stroke-linejoin="round"/>
<path d="M295 156L309 170" stroke="#BABABA" stroke-linecap="round" stroke-linejoin="round"/>
<path d="M307.284 162.814L303.008 167.287C301.085 169.299 301.156 172.489 303.168 174.413L340.319 209.927C342.331 211.851 345.522 211.779 347.445 209.767L351.721 205.294C353.644 203.282 353.572 200.092 351.56 198.169L314.409 162.654C312.397 160.731 309.207 160.802 307.284 162.814Z" fill="white" stroke="#BABABA" stroke-linecap="round" stroke-linejoin="round"/>
</svg>
