<svg width="177" height="177" viewBox="0 0 177 177" fill="none" xmlns="http://www.w3.org/2000/svg">
<path d="M103.365 69.9345C92.9871 69.997 82.448 69.5095 72.5901 66.747C62.7322 63.9846 54.0136 58.7722 46.0876 52.6849C40.8986 48.7224 36.1802 45.5725 29.4431 46.0475C22.8559 46.3969 16.5552 48.8776 11.4734 53.1223C2.90345 60.6972 4.2038 74.6969 7.62188 84.5466C12.7738 99.3838 28.4523 109.684 41.7655 116.396C57.1592 124.158 74.0638 128.671 91.018 131.258C105.879 133.533 124.963 135.195 137.831 125.396C149.658 116.408 152.903 95.8589 150.005 81.9842C149.299 77.8862 147.137 74.1885 143.924 71.5844C135.614 65.4596 123.23 69.547 113.892 69.7595C110.486 69.8345 106.907 69.922 103.365 69.9345Z" fill="#F2F2F2"/>
<path d="M53 22V27" stroke="#CFCFCF" stroke-width="0.85" stroke-linecap="round" stroke-linejoin="round"/>
<path d="M50 24H55" stroke="#CFCFCF" stroke-width="0.85" stroke-linecap="round" stroke-linejoin="round"/>
<path d="M154 128V133" stroke="#CFCFCF" stroke-width="0.85" stroke-linecap="round" stroke-linejoin="round"/>
<path d="M152 131H156" stroke="#CFCFCF" stroke-width="0.85" stroke-linecap="round" stroke-linejoin="round"/>
<path d="M13 105C13.5523 105 14 104.328 14 103.5C14 102.672 13.5523 102 13 102C12.4477 102 12 102.672 12 103.5C12 104.328 12.4477 105 13 105Z" fill="#CFCFCF"/>
<path d="M116 27C116.552 27 117 26.5523 117 26C117 25.4477 116.552 25 116 25C115.448 25 115 25.4477 115 26C115 26.5523 115.448 27 116 27Z" fill="#CFCFCF"/>
<path d="M82.5 155C107.629 155 128 153.657 128 152C128 150.343 107.629 149 82.5 149C57.371 149 37 150.343 37 152C37 153.657 57.371 155 82.5 155Z" fill="#F2F2F2"/>
<path d="M46.8444 36H113.726C115.39 36 116.986 36.653 118.162 37.8154C119.339 38.9777 120 40.5542 120 42.1981V120.802C120 122.446 119.339 124.022 118.162 125.185C116.986 126.347 115.39 127 113.726 127H38.2741C36.6101 127 35.0142 126.347 33.8376 125.185C32.661 124.022 32 122.446 32 120.802V50.8134L46.8444 36Z" fill="white" stroke="#BABABA" stroke-linecap="round" stroke-linejoin="round"/>
<path d="M119 75H51V128H119V75Z" fill="#D2D2D2"/>
<path d="M32 51H45.1057C45.8745 50.9967 46.6107 50.7109 47.1531 50.2051C47.6955 49.6994 48 49.0148 48 48.3013V36L32 51Z" fill="white" stroke="#BABABA" stroke-linecap="round" stroke-linejoin="round"/>
<path d="M118.307 57H51.6933C49.1013 57 47 59.1334 47 61.7652V76.2348C47 78.8666 49.1013 81 51.6933 81H118.307C120.899 81 123 78.8666 123 76.2348V61.7652C123 59.1334 120.899 57 118.307 57Z" fill="white" stroke="#BABABA" stroke-linecap="round" stroke-linejoin="round"/>
<path d="M59.5 74C61.9853 74 64 71.9853 64 69.5C64 67.0147 61.9853 65 59.5 65C57.0147 65 55 67.0147 55 69.5C55 71.9853 57.0147 74 59.5 74Z" fill="#D2D2D2"/>
<path d="M73 74C75.2091 74 77 71.9853 77 69.5C77 67.0147 75.2091 65 73 65C70.7909 65 69 67.0147 69 69.5C69 71.9853 70.7909 74 73 74Z" fill="#D2D2D2"/>
<path d="M86.5 74C88.9853 74 91 71.9853 91 69.5C91 67.0147 88.9853 65 86.5 65C84.0147 65 82 67.0147 82 69.5C82 71.9853 84.0147 74 86.5 74Z" fill="#D2D2D2"/>
<path d="M118.307 83H51.6933C49.1013 83 47 85.2223 47 87.9637V103.036C47 105.778 49.1013 108 51.6933 108H118.307C120.899 108 123 105.778 123 103.036V87.9637C123 85.2223 120.899 83 118.307 83Z" fill="white" stroke="#BABABA" stroke-linecap="round" stroke-linejoin="round"/>
<path d="M59.5 100C61.9853 100 64 98.2091 64 96C64 93.7909 61.9853 92 59.5 92C57.0147 92 55 93.7909 55 96C55 98.2091 57.0147 100 59.5 100Z" fill="#D2D2D2"/>
<path d="M73 100C75.2091 100 77 98.2091 77 96C77 93.7909 75.2091 92 73 92C70.7909 92 69 93.7909 69 96C69 98.2091 70.7909 100 73 100Z" fill="#D2D2D2"/>
<path d="M86.5 100C88.9853 100 91 98.2091 91 96C91 93.7909 88.9853 92 86.5 92C84.0147 92 82 93.7909 82 96C82 98.2091 84.0147 100 86.5 100Z" fill="#D2D2D2"/>
<path d="M118.307 111H51.6933C49.1013 111 47 113.045 47 115.567V129.433C47 131.955 49.1013 134 51.6933 134H118.307C120.899 134 123 131.955 123 129.433V115.567C123 113.045 120.899 111 118.307 111Z" fill="white" stroke="#BABABA" stroke-linecap="round" stroke-linejoin="round"/>
<path d="M59.5 126C61.9853 126 64 124.433 64 122.5C64 120.567 61.9853 119 59.5 119C57.0147 119 55 120.567 55 122.5C55 124.433 57.0147 126 59.5 126Z" fill="#D2D2D2"/>
<path d="M73 126C75.2091 126 77 124.433 77 122.5C77 120.567 75.2091 119 73 119C70.7909 119 69 120.567 69 122.5C69 124.433 70.7909 126 73 126Z" fill="#D2D2D2"/>
<path d="M86.5 126C88.9853 126 91 124.433 91 122.5C91 120.567 88.9853 119 86.5 119C84.0147 119 82 120.567 82 122.5C82 124.433 84.0147 126 86.5 126Z" fill="#D2D2D2"/>
<path d="M125 88C139.359 88 151 76.3594 151 62C151 47.6406 139.359 36 125 36C110.641 36 99 47.6406 99 62C99 76.3594 110.641 88 125 88Z" fill="white" stroke="#BABABA" stroke-linecap="round" stroke-linejoin="round"/>
<path d="M143 80L150 88" stroke="#BABABA" stroke-linecap="round" stroke-linejoin="round"/>
<path d="M149.516 84.083L147.392 86.3053C146.436 87.3049 146.472 88.89 147.472 89.8457L165.931 107.492C166.93 108.447 168.515 108.412 169.471 107.412L171.596 105.19C172.551 104.19 172.515 102.605 171.516 101.649L153.057 84.0033C152.057 83.0476 150.472 83.0833 149.516 84.083Z" fill="white" stroke="#BABABA" stroke-linecap="round" stroke-linejoin="round"/>
</svg>
